<svg xmlns="http://www.w3.org/2000/svg" xmlns:xlink="http://www.w3.org/1999/xlink" width="400" height="200">
    <defs>
        <path id="a" d="M0 127h344V0H0z"/>
    </defs>
    <g fill="none" fill-rule="evenodd">
        <circle cx="192" cy="100" r="100" fill="#D1D7E0"/>
        <g transform="translate(0 41)">
            <path fill="#3E5ED6" d="M339 103.182a4.833 4.833 0 0 1-4.818 4.818h-80.364a4.833 4.833 0 0 1-4.818-4.818V31.818A4.833 4.833 0 0 1 253.818 27h53.366c2.649 0 6.118 1.735 7.707 3.855l21.218 28.292c1.59 2.119 2.891 6.022 2.891 8.672v35.363z"/>
            <path fill="#6F8DFD" d="M306 103.182a4.833 4.833 0 0 1-4.818 4.818h-80.364a4.833 4.833 0 0 1-4.818-4.818V31.818A4.833 4.833 0 0 1 220.818 27h53.366c2.649 0 6.118 1.735 7.708 3.855l21.217 28.292c1.59 2.119 2.891 6.022 2.891 8.672v35.363z"/>
            <mask id="b" fill="#fff">
                <use xlink:href="#a"/>
            </mask>
            <path fill="#6F8DFD" d="M89 109h147V0H89z" mask="url(#b)"/>
            <path fill="#3E5ED6" d="M111 77h102V21H111zM234 108h8V27h-8z" mask="url(#b)"/>
            <path fill="#4B71FC" d="M346 103.201c0 3.19-2.547 5.799-5.659 5.799H89.661c-3.113 0-5.661-2.61-5.661-5.799v-1.4C84 98.61 86.548 96 89.66 96h250.681c3.112 0 5.659 2.61 5.659 5.8v1.401z" mask="url(#b)"/>
            <path fill="#273A8A" d="M344 103.201c0 3.19-2.509 5.799-5.574 5.799h-26.85c-3.067 0-5.576-2.61-5.576-5.799v-1.4c0-3.191 2.509-5.801 5.576-5.801h26.85c3.065 0 5.574 2.61 5.574 5.8v1.401z" mask="url(#b)"/>
            <path fill="#FFF" d="M249 62V36h27.005L296 62z" mask="url(#b)"/>
            <path fill="#34313F" d="M147 108c0 10.494-8.506 19-19 19s-19-8.506-19-19c0-10.492 8.506-19 19-19s19 8.508 19 19" mask="url(#b)"/>
            <path fill="#F6F7F9" d="M134 108c0 3.866-3.132 7-7 7a7 7 0 0 1-7-7 7 7 0 0 1 7-7c3.868 0 7 3.134 7 7" mask="url(#b)"/>
            <path fill="#34313F" d="M282 108c0 10.494-8.506 19-19 19-10.492 0-19-8.506-19-19 0-10.492 8.508-19 19-19 10.494 0 19 8.508 19 19" mask="url(#b)"/>
            <path fill="#F6F7F9" d="M270 108a7 7 0 0 1-7 7 7 7 0 0 1-7-7c0-3.866 3.133-7 7-7a7 7 0 0 1 7 7" mask="url(#b)"/>
            <path fill="#34313F" d="M315 88h20V72h-20z" mask="url(#b)"/>
            <path fill="#E4E7ED" d="M293 36h18.41L331 62h-18.083z" mask="url(#b)"/>
            <path fill="#3E5ED6" d="M234 27h39V0h-39z" mask="url(#b)"/>
            <path fill="#D1D7E0" d="M29.386 96.821l11.456-6.714c.513-.303 1.158.073 1.158.679v13.429c0 .602-.645.98-1.158.679l-11.456-6.715a.79.79 0 0 1 0-1.358" mask="url(#b)"/>
            <path fill="#4B71FC" d="M.621 79.407l5.516-3.235c.828-.488 1.863.12 1.863 1.093v6.47c0 .973-1.035 1.58-1.863 1.094L.62 81.593c-.828-.486-.828-1.7 0-2.186" mask="url(#b)"/>
            <path fill="#F9BB32" d="M46.622 50.406l5.514-3.234c.829-.488 1.864.12 1.864 1.092v6.472c0 .971-1.035 1.58-1.864 1.093l-5.514-3.237c-.83-.485-.83-1.7 0-2.186" mask="url(#b)"/>
            <path fill="#4ECC86" d="M71.508 75.625l26.968-15.488a1.015 1.015 0 0 1 1.524.875v30.977c0 .778-.847 1.263-1.524.874L71.508 77.375a1.007 1.007 0 0 1 0-1.75" mask="url(#b)"/>
        </g>
    </g>
</svg>
